<?xml version="1.0" encoding="UTF-8" standalone="no"?>
<!-- Created with Inkscape (http://www.inkscape.org/) -->

<svg
   width="1200"
   height="600"
   viewBox="0 0 317.5 158.75"
   version="1.1"
   id="svg5"
   xml:space="preserve"
   inkscape:version="1.2.1 (9c6d41e410, 2022-07-14)"
   sodipodi:docname="logo_background.svg"
   inkscape:export-filename="../img/logo_hero.png"
   inkscape:export-xdpi="96"
   inkscape:export-ydpi="96"
   xmlns:inkscape="http://www.inkscape.org/namespaces/inkscape"
   xmlns:sodipodi="http://sodipodi.sourceforge.net/DTD/sodipodi-0.dtd"
   xmlns="http://www.w3.org/2000/svg"
   xmlns:svg="http://www.w3.org/2000/svg"><sodipodi:namedview
     id="namedview7"
     pagecolor="#ffffff"
     bordercolor="#666666"
     borderopacity="1.0"
     inkscape:showpageshadow="2"
     inkscape:pageopacity="0.0"
     inkscape:pagecheckerboard="0"
     inkscape:deskcolor="#d1d1d1"
     inkscape:document-units="px"
     showgrid="false"
     inkscape:zoom="0.33323782"
     inkscape:cx="-163.54686"
     inkscape:cy="513.14704"
     inkscape:window-width="2048"
     inkscape:window-height="1113"
     inkscape:window-x="1080"
     inkscape:window-y="0"
     inkscape:window-maximized="1"
     inkscape:current-layer="layer1" /><defs
     id="defs2" /><g
     inkscape:label="Layer 1"
     inkscape:groupmode="layer"
     id="layer1"><g
       id="g1628"
       style="stroke-width:0.584394;opacity:0.5"
       transform="matrix(1.7111818,0,0,1.7111818,-82.944098,-104.47926)"><path
         id="path4184-1"
         style="fill:#3600ad;fill-opacity:1;stroke:none;stroke-width:0.622459;stroke-opacity:1"
         d="m 80.093302,97.856042 c -6.394703,0 -12.085586,3.098268 -15.750976,7.915798 1.34343,8.38346 4.346037,16.54359 8.804114,23.75565 3.174388,5.17703 7.195186,9.99816 11.718664,14.08183 8.318417,7.5466 18.651086,12.86806 29.595096,15.24197 4.30275,0.93639 8.68827,1.42969 13.07207,1.48466 2.52982,-1.55189 4.7011,-3.66153 6.35155,-6.16758 0.46034,0.0294 0.92406,0.0331 1.39164,0.0331 12.26148,0 22.21364,-10.25583 22.21364,-22.91281 0,-12.65696 -9.95216,-22.91282 -22.21364,-22.91282 -3.29581,0 -6.42017,0.74079 -9.23251,2.07068 -3.50855,-5.97506 -9.87609,-9.96063 -17.139,-9.96063 -5.05736,0 -9.670293,1.93527 -13.19403,5.12837 -3.668434,-4.72803 -9.291922,-7.758188 -15.616618,-7.758188 z" /><path
         id="path286"
         style="fill:#4e00fa;fill-opacity:1;stroke-width:0.231931;stroke-linecap:round;stroke-linejoin:round;paint-order:stroke markers fill;stop-color:#000000"
         d="m 72.410532,38.081209 a 72.857262,72.857262 0 0 0 -32.606616,97.740391 72.857262,72.857262 0 0 0 97.740854,32.60639 72.857262,72.857262 0 0 0 12.26795,-7.80213 68.535248,68.535248 0 0 1 -82.780587,-34.4195 68.535248,68.535248 0 0 1 30.672269,-91.941994 68.535248,68.535248 0 0 1 9.395758,-3.83199 72.857262,72.857262 0 0 0 -34.689628,7.648833 z" /><path
         sodipodi:type="star"
         style="fill:#faea12;fill-opacity:1;stroke:none;stroke-width:0.322407;stroke-linecap:round;stroke-linejoin:round;paint-order:stroke markers fill;stop-color:#000000"
         id="path565"
         inkscape:flatsided="false"
         sodipodi:sides="5"
         sodipodi:cx="107.14811"
         sodipodi:cy="51.60548"
         sodipodi:r1="25.516188"
         sodipodi:r2="12.758093"
         sodipodi:arg1="0.78539816"
         sodipodi:arg2="1.4137167"
         inkscape:rounded="0"
         inkscape:randomized="0"
         d="M 125.19078,69.648149 109.14391,64.2065 95.564003,74.34057 95.780565,57.397533 81.946068,47.613869 98.126775,42.584146 103.1565,26.403439 l 9.78366,13.834497 16.94304,-0.216563 -10.13407,13.579913 z"
         inkscape:transform-center-x="0.88732767"
         inkscape:transform-center-y="-0.88732737"
         transform="matrix(0.71937152,0,0,0.71937152,43.188193,30.603813)" /><path
         sodipodi:type="star"
         style="fill:#faea12;fill-opacity:1;stroke:none;stroke-width:0.707944;stroke-linecap:round;stroke-linejoin:round;paint-order:stroke markers fill;stop-color:#000000"
         id="path565-3"
         inkscape:flatsided="false"
         sodipodi:sides="5"
         sodipodi:cx="107.14811"
         sodipodi:cy="51.60548"
         sodipodi:r1="25.516188"
         sodipodi:r2="12.758093"
         sodipodi:arg1="0.78539816"
         sodipodi:arg2="1.4137167"
         inkscape:rounded="0"
         inkscape:randomized="0"
         d="M 125.19078,69.648149 109.14391,64.2065 95.564003,74.34057 95.780565,57.397533 81.946068,47.613869 98.126775,42.584146 103.1565,26.403439 l 9.78366,13.834497 16.94304,-0.216563 -10.13407,13.579913 z"
         inkscape:transform-center-x="0.40409748"
         inkscape:transform-center-y="-0.40410055"
         transform="matrix(0.32761103,0,0,0.32761103,93.905799,24.040374)" /><path
         sodipodi:type="star"
         style="fill:#faea12;fill-opacity:1;stroke:none;stroke-width:0.707944;stroke-linecap:round;stroke-linejoin:round;paint-order:stroke markers fill;stop-color:#000000"
         id="path565-3-7"
         inkscape:flatsided="false"
         sodipodi:sides="5"
         sodipodi:cx="107.14811"
         sodipodi:cy="51.60548"
         sodipodi:r1="25.516188"
         sodipodi:r2="12.758093"
         sodipodi:arg1="0.78539816"
         sodipodi:arg2="1.4137167"
         inkscape:rounded="0"
         inkscape:randomized="0"
         d="M 125.19078,69.648149 109.14391,64.2065 95.564003,74.34057 95.780565,57.397533 81.946068,47.613869 98.126775,42.584146 103.1565,26.403439 l 9.78366,13.834497 16.94304,-0.216563 -10.13407,13.579913 z"
         inkscape:transform-center-x="0.40409748"
         inkscape:transform-center-y="-0.40410055"
         transform="matrix(0.32761103,0,0,0.32761103,63.711031,32.174468)" /></g></g></svg>
